<svg width="96" height="108" viewBox="0 0 96 108" fill="none" xmlns="http://www.w3.org/2000/svg">
<path d="M38.919 87.2308C38.7674 76.5466 38.8777 61.0047 39.6445 47.2308C39.6584 46.8664 39.6807 46.5112 39.711 46.1648C44.4377 -22.0103 130.238 66.5711 78.919 92.2308C89.9325 73.2074 74.3677 43.8558 56.419 33.7308C50.9271 49.2079 63.0107 107.231 38.919 107.231C12.8224 106.331 -28.4187 6.53745 28.919 16.7308C16.5013 33.6641 25.4741 73.786 38.919 87.2308Z" fill="url(#paint0_linear_608_48)"/>
<g filter="url(#filter0_d_608_48)">
<path d="M40 41.1014C45.6 31.5014 53 32.1014 56 33.6014C53.8333 31.4347 48.7 27.3013 45.5 28.1013C42.3 28.9013 40.5 37.1014 40 41.1014Z" fill="#6939F3"/>
</g>
<path d="M59.5 35.5C51.6695 29.4765 41.8333 37.1666 40 42.9999C40 33.3056 44.8424 19.1013 57.4999 20.9999C83.4998 21.9999 114.5 75.5 79 92C90.4999 63.5 66 40.5 59.5 35.5Z" fill="url(#paint1_linear_608_48)"/>
<g filter="url(#filter1_i_608_48)">
<circle cx="53" cy="9" r="9" fill="url(#paint2_linear_608_48)"/>
</g>
<defs>
<filter id="filter0_d_608_48" x="35" y="28" width="26" height="25.1013" filterUnits="userSpaceOnUse" color-interpolation-filters="sRGB">
<feFlood flood-opacity="0" result="BackgroundImageFix"/>
<feColorMatrix in="SourceAlpha" type="matrix" values="0 0 0 0 0 0 0 0 0 0 0 0 0 0 0 0 0 0 127 0" result="hardAlpha"/>
<feOffset dy="7"/>
<feGaussianBlur stdDeviation="2.5"/>
<feComposite in2="hardAlpha" operator="out"/>
<feColorMatrix type="matrix" values="0 0 0 0 0 0 0 0 0 0 0 0 0 0 0 0 0 0 0.25 0"/>
<feBlend mode="normal" in2="BackgroundImageFix" result="effect1_dropShadow_608_48"/>
<feBlend mode="normal" in="SourceGraphic" in2="effect1_dropShadow_608_48" result="shape"/>
</filter>
<filter id="filter1_i_608_48" x="44" y="-3" width="18" height="21" filterUnits="userSpaceOnUse" color-interpolation-filters="sRGB">
<feFlood flood-opacity="0" result="BackgroundImageFix"/>
<feBlend mode="normal" in="SourceGraphic" in2="BackgroundImageFix" result="shape"/>
<feColorMatrix in="SourceAlpha" type="matrix" values="0 0 0 0 0 0 0 0 0 0 0 0 0 0 0 0 0 0 127 0" result="hardAlpha"/>
<feOffset dy="-3"/>
<feGaussianBlur stdDeviation="3"/>
<feComposite in2="hardAlpha" operator="arithmetic" k2="-1" k3="1"/>
<feColorMatrix type="matrix" values="0 0 0 0 0.975 0 0 0 0 0.195 0 0 0 0 0.8502 0 0 0 0.43 0"/>
<feBlend mode="normal" in2="shape" result="effect1_innerShadow_608_48"/>
</filter>
<linearGradient id="paint0_linear_608_48" x1="22.5" y1="9.5" x2="47.6117" y2="107.231" gradientUnits="userSpaceOnUse">
<stop stop-color="#FDC7B6" stop-opacity="0.976142"/>
<stop offset="0.219844" stop-color="#BE6AFF"/>
<stop offset="0.402376" stop-color="#6E4DF1" stop-opacity="0.88"/>
<stop offset="0.58017" stop-color="#6A89F3" stop-opacity="0.9"/>
<stop offset="0.759559" stop-color="#2FCCEF"/>
<stop offset="0.951239" stop-color="#64BEFF"/>
</linearGradient>
<linearGradient id="paint1_linear_608_48" x1="41.5" y1="19" x2="98" y2="111" gradientUnits="userSpaceOnUse">
<stop stop-color="#58C1FB"/>
<stop offset="0.265" stop-color="#6C9EF3"/>
<stop offset="0.56" stop-color="#7C82F4"/>
<stop offset="1" stop-color="#9264F7"/>
</linearGradient>
<linearGradient id="paint2_linear_608_48" x1="52.4" y1="-3" x2="52.4" y2="21" gradientUnits="userSpaceOnUse">
<stop stop-color="#4440FF"/>
<stop offset="0.56" stop-color="#49D6F4"/>
<stop offset="1" stop-color="#16C3FA"/>
</linearGradient>
</defs>
</svg>
